<?xml version="1.0" encoding="UTF-8"?>
<svg width="24px" height="24px" viewBox="0 0 24 24" version="1.1" xmlns="http://www.w3.org/2000/svg">
    <g stroke="none" stroke-width="1" fill="none" fill-rule="evenodd">
        <g fill="currentColor">
            <circle cx="9" cy="6" r="2.5"/>
            <circle cx="15" cy="6" r="2.5"/>
            <circle cx="5" cy="9" r="2"/>
            <circle cx="19" cy="9" r="2"/>
            <circle cx="12" cy="4" r="2"/>
            <path d="M19,22 C17.4,22 14,21.5 12,18.5 C10,21.5 6.6,22 5,22 C4.4,22 4,21.6 4,21 L4,15 C4,14.4 4.4,14 5,14 L19,14 C19.6,14 20,14.4 20,15 L20,21 C20,21.6 19.6,22 19,22 Z"/>
            <path d="M2,18 C2,16.8954305 2.8954305,16 4,16 L4,19 C2.8954305,19 2,18.1045695 2,18 Z"/>
            <path d="M22,18 C22,16.8954305 21.1045695,16 20,16 L20,19 C21.1045695,19 22,18.1045695 22,18 Z"/>
        </g>
    </g>
</svg>
