<?xml version="1.0" encoding="UTF-8"?>
<svg width="24px" height="24px" viewBox="0 0 24 24" version="1.1" xmlns="http://www.w3.org/2000/svg">
    <g stroke="none" stroke-width="1" fill="none" fill-rule="evenodd">
        <g fill="currentColor">
            <circle cx="8" cy="6" r="3.5"/>
            <circle cx="16" cy="6" r="3.5"/>
            <path d="M4,19 L4,13 C4,12.4477153 4.44771525,12 5,12 L11,12 C11.5522847,12 12,12.4477153 12,13 L12,19 C12,19.5522847 11.5522847,20 11,20 L5,20 C4.44771525,20 4,19.5522847 4,19 Z" />
            <path d="M12,19 L12,13 C12,12.4477153 12.4477153,12 13,12 L19,12 C19.5522847,12 20,12.4477153 20,13 L20,19 C20,19.5522847 19.5522847,20 19,20 L13,20 C12.4477153,20 12,19.5522847 12,19 Z" />
        </g>
    </g>
</svg>
