<?xml version="1.0" encoding="UTF-8"?>
<svg width="24px" height="24px" viewBox="0 0 24 24" version="1.1" xmlns="http://www.w3.org/2000/svg">
    <g stroke="none" stroke-width="1" fill="none" fill-rule="evenodd">
        <g fill="currentColor">
            <circle cx="12" cy="5" r="3"/>
            <circle cx="6" cy="8" r="2.5"/>
            <circle cx="18" cy="8" r="2.5"/>
            <path d="M12,22 C9.23857625,22 7,19.7614237 7,17 L7,12 C7,11.4477153 7.44771525,11 8,11 L16,11 C16.5522847,11 17,11.4477153 17,12 L17,17 C17,19.7614237 14.7614237,22 12,22 Z" />
            <path d="M6,22 C4.34314575,22 3,20.6568542 3,19 L3,14 C3,13.4477153 3.44771525,13 4,13 L6,13 C6.55228475,13 7,13.4477153 7,14 L7,16 C7,18.209139 6.20913899,20.2091391 5,21.5 C5.39450671,21.811509 5.6812789,22 6,22 Z" />
            <path d="M18,22 C19.6568542,22 21,20.6568542 21,19 L21,14 C21,13.4477153 20.5522847,13 20,13 L18,13 C17.4477153,13 17,13.4477153 17,14 L17,16 C17,18.209139 17.790861,20.2091391 19,21.5 C18.6054933,21.811509 18.3187211,22 18,22 Z" />
        </g>
    </g>
</svg>
