<?xml version="1.0" encoding="UTF-8"?>
<svg width="1000px" height="1000px" viewBox="0 0 1000 1000" version="1.1" xmlns="http://www.w3.org/2000/svg" xmlns:xlink="http://www.w3.org/1999/xlink">
    <g id="Telegram_logo" stroke="none" stroke-width="1" fill="none" fill-rule="evenodd">
        <circle id="Background" fill="#29AAED" cx="500" cy="500" r="500"></circle>
        <path d="M226.328419,494.722069 C372.088573,431.216685 469.284839,389.350049 517.917216,369.122161 C656.772535,311.36743 685.625481,301.334277 704.431427,301.003177 C708.567621,300.93065 717.815839,301.955157 723.806446,306.816148 C728.864797,310.92 730.256552,316.582859 730.922551,320.541812 C731.588551,324.500764 732.417879,333.868854 731.758626,341.041439 C724.234007,419.102486 691.675292,610.964674 675.110952,699.515267 C668.10208,736.984342 654.301336,749.547532 640.940618,750.777006 C611.904684,753.448938 589.856115,731.588035 561.733393,713.153237 C517.726886,684.306416 492.866009,666.349181 450.150074,638.200013 C400.78442,605.66878 432.786119,587.789048 460.919462,558.568563 C468.282091,550.921423 596.21508,434.556479 598.691227,424.000355 C599.00091,422.680135 599.288312,417.758981 596.36474,415.160431 C593.441168,412.561881 589.126229,413.450484 586.012448,414.157198 C581.598758,415.158943 511.297793,461.625274 375.109553,553.556189 C355.154278,567.258623 337.080048,573.934908 320.886965,573.585046 C303.033487,573.199351 268.692678,563.490928 243.163763,555.192408 C211.249171,545.013936 186.228225,539.551261 188.468338,522.346529 C189.620619,513.396794 202.198135,504.303477 226.328419,494.722069 Z" id="Path-3" fill="#FFFFFF"></path>
    </g>
</svg>
